<?xml version="1.0" encoding="UTF-8"?>
<svg xmlns="http://www.w3.org/2000/svg" width="2000" height="2000" style="background: transparent;">

<path style="fill:#010101; stroke:none;" d="M1496 1718L1496 1884L1950 1884L1950 1202C1950 1147.34 1949.74 1092.66 1950 1038C1950.14 1009.7 1951.85 981.332 1949.91 953C1945.44 887.742 1938.81 821.929 1924.11 758C1896.3 636.991 1844.05 520.158 1767.58 422C1733.69 378.512 1695.68 338.346 1654 302.282C1356.24 44.6339 899.625 5.34644 553 184.259C326.728 301.05 151.61 515.703 83.4244 761C62.473 836.373 50.9276 914.915 49.0147 993C48.0538 1032.22 51.0573 1072.01 54.8302 1111C60.6529 1171.17 69.4792 1230.41 84.8843 1289C116.664 1409.87 174.495 1524.47 255.275 1620C302.322 1675.64 356.328 1725.39 416 1767.28C542.042 1855.77 694.317 1906.05 847 1920.83C883.768 1924.39 921.041 1925 958 1925C1108.53 1925 1265.09 1890.69 1393 1808.31C1415.13 1794.05 1436.94 1778.19 1456 1759.96C1470.02 1746.55 1482.01 1731.39 1496 1718z"/>
<path style="fill:#ffffff; stroke:none;" d="M979 509.424C950.582 513.157 922.23 513.489 894 519.51C797.522 540.088 709.747 586.368 642.089 659C463.058 851.193 477.132 1191.58 672 1367.83C783.509 1468.68 938.261 1505.52 1085 1484.71C1136.17 1477.46 1188.77 1460.95 1234 1435.86C1319.64 1388.36 1390.82 1317.65 1433.74 1229C1467.9 1158.44 1483 1081.01 1483 1003C1483 964.169 1481.21 925.136 1473.2 887C1448.63 770.144 1382.34 664.131 1285 594.579C1240.59 562.844 1188.95 538.867 1136 525.627C1097.7 516.049 1059.27 511.68 1020 509.961C1006.52 509.37 992.496 507.652 979 509.424z"/>
</svg>